<mxfile host="app.diagrams.net" modified="2021-11-29T21:24:47.632Z" agent="5.0 (Macintosh; Intel Mac OS X 10_15_7) AppleWebKit/537.36 (KHTML, like Gecko) Chrome/95.0.4638.69 Safari/537.36" etag="B8a6N7yL4TfQg2hcdZcr" version="15.8.3" type="github">
  <diagram id="axcDbGKzzqpzkaZa_wmz" name="Page-1">
    <mxGraphModel dx="516" dy="278" grid="1" gridSize="10" guides="1" tooltips="1" connect="1" arrows="1" fold="1" page="1" pageScale="1" pageWidth="850" pageHeight="1100" math="0" shadow="0">
      <root>
        <mxCell id="0" />
        <mxCell id="1" parent="0" />
        <mxCell id="hd0M6olZEAg69DOeF42a-16" value="" style="rounded=1;whiteSpace=wrap;html=1;fillColor=#dae8fc;strokeColor=#6c8ebf;" vertex="1" parent="1">
          <mxGeometry x="400" y="260" width="320" height="120" as="geometry" />
        </mxCell>
        <mxCell id="hd0M6olZEAg69DOeF42a-1" value="spine" style="ellipse;whiteSpace=wrap;html=1;aspect=fixed;" vertex="1" parent="1">
          <mxGeometry x="320" y="120" width="80" height="80" as="geometry" />
        </mxCell>
        <mxCell id="hd0M6olZEAg69DOeF42a-10" style="rounded=0;orthogonalLoop=1;jettySize=auto;html=1;exitX=0.5;exitY=0;exitDx=0;exitDy=0;entryX=0;entryY=0.5;entryDx=0;entryDy=0;endArrow=none;endFill=0;" edge="1" parent="1" source="hd0M6olZEAg69DOeF42a-2" target="hd0M6olZEAg69DOeF42a-1">
          <mxGeometry relative="1" as="geometry" />
        </mxCell>
        <mxCell id="hd0M6olZEAg69DOeF42a-2" value="leaf1" style="ellipse;whiteSpace=wrap;html=1;aspect=fixed;" vertex="1" parent="1">
          <mxGeometry x="200" y="280" width="80" height="80" as="geometry" />
        </mxCell>
        <mxCell id="hd0M6olZEAg69DOeF42a-11" style="rounded=0;orthogonalLoop=1;jettySize=auto;html=1;exitX=0.5;exitY=0;exitDx=0;exitDy=0;entryX=1;entryY=0.5;entryDx=0;entryDy=0;endArrow=none;endFill=0;" edge="1" parent="1" source="hd0M6olZEAg69DOeF42a-3" target="hd0M6olZEAg69DOeF42a-1">
          <mxGeometry relative="1" as="geometry" />
        </mxCell>
        <mxCell id="hd0M6olZEAg69DOeF42a-3" value="leaf2a" style="ellipse;whiteSpace=wrap;html=1;aspect=fixed;" vertex="1" parent="1">
          <mxGeometry x="440" y="280" width="80" height="80" as="geometry" />
        </mxCell>
        <mxCell id="hd0M6olZEAg69DOeF42a-12" style="rounded=0;orthogonalLoop=1;jettySize=auto;html=1;exitX=0.5;exitY=0;exitDx=0;exitDy=0;entryX=1;entryY=0.5;entryDx=0;entryDy=0;endArrow=none;endFill=0;" edge="1" parent="1" source="hd0M6olZEAg69DOeF42a-4" target="hd0M6olZEAg69DOeF42a-1">
          <mxGeometry relative="1" as="geometry" />
        </mxCell>
        <mxCell id="hd0M6olZEAg69DOeF42a-4" value="leaf2b" style="ellipse;whiteSpace=wrap;html=1;aspect=fixed;" vertex="1" parent="1">
          <mxGeometry x="600" y="280" width="80" height="80" as="geometry" />
        </mxCell>
        <mxCell id="hd0M6olZEAg69DOeF42a-15" style="edgeStyle=none;rounded=0;orthogonalLoop=1;jettySize=auto;html=1;exitX=0.5;exitY=0;exitDx=0;exitDy=0;entryX=0.5;entryY=1;entryDx=0;entryDy=0;endArrow=none;endFill=0;" edge="1" parent="1" source="hd0M6olZEAg69DOeF42a-5" target="hd0M6olZEAg69DOeF42a-2">
          <mxGeometry relative="1" as="geometry" />
        </mxCell>
        <mxCell id="hd0M6olZEAg69DOeF42a-5" value="server1" style="rounded=1;whiteSpace=wrap;html=1;" vertex="1" parent="1">
          <mxGeometry x="200" y="440" width="80" height="60" as="geometry" />
        </mxCell>
        <mxCell id="hd0M6olZEAg69DOeF42a-13" style="edgeStyle=none;rounded=0;orthogonalLoop=1;jettySize=auto;html=1;exitX=0.5;exitY=0;exitDx=0;exitDy=0;entryX=0.5;entryY=1;entryDx=0;entryDy=0;endArrow=none;endFill=0;" edge="1" parent="1" source="hd0M6olZEAg69DOeF42a-6" target="hd0M6olZEAg69DOeF42a-3">
          <mxGeometry relative="1" as="geometry" />
        </mxCell>
        <mxCell id="hd0M6olZEAg69DOeF42a-14" style="edgeStyle=none;rounded=0;orthogonalLoop=1;jettySize=auto;html=1;exitX=0.5;exitY=0;exitDx=0;exitDy=0;entryX=0.5;entryY=1;entryDx=0;entryDy=0;endArrow=none;endFill=0;" edge="1" parent="1" source="hd0M6olZEAg69DOeF42a-6" target="hd0M6olZEAg69DOeF42a-4">
          <mxGeometry relative="1" as="geometry" />
        </mxCell>
        <mxCell id="hd0M6olZEAg69DOeF42a-6" value="server1" style="rounded=1;whiteSpace=wrap;html=1;" vertex="1" parent="1">
          <mxGeometry x="520" y="440" width="80" height="60" as="geometry" />
        </mxCell>
        <mxCell id="hd0M6olZEAg69DOeF42a-7" value="cloud" style="ellipse;shape=cloud;whiteSpace=wrap;html=1;" vertex="1" parent="1">
          <mxGeometry x="490" y="40" width="120" height="80" as="geometry" />
        </mxCell>
        <mxCell id="hd0M6olZEAg69DOeF42a-9" value="" style="endArrow=none;html=1;rounded=0;entryX=0.16;entryY=0.55;entryDx=0;entryDy=0;entryPerimeter=0;exitX=0.5;exitY=0;exitDx=0;exitDy=0;" edge="1" parent="1" source="hd0M6olZEAg69DOeF42a-1" target="hd0M6olZEAg69DOeF42a-7">
          <mxGeometry width="50" height="50" relative="1" as="geometry">
            <mxPoint x="400" y="280" as="sourcePoint" />
            <mxPoint x="450" y="230" as="targetPoint" />
          </mxGeometry>
        </mxCell>
        <mxCell id="hd0M6olZEAg69DOeF42a-17" value="10.0.2.0/24" style="text;html=1;strokeColor=none;fillColor=none;align=center;verticalAlign=middle;whiteSpace=wrap;rounded=0;" vertex="1" parent="1">
          <mxGeometry x="370" y="220" width="60" height="30" as="geometry" />
        </mxCell>
        <mxCell id="hd0M6olZEAg69DOeF42a-18" value="10.0.3.0/24" style="text;html=1;strokeColor=none;fillColor=none;align=center;verticalAlign=middle;whiteSpace=wrap;rounded=0;" vertex="1" parent="1">
          <mxGeometry x="512.5" y="190" width="60" height="30" as="geometry" />
        </mxCell>
        <mxCell id="hd0M6olZEAg69DOeF42a-19" value="10.0.1.0/24" style="text;html=1;strokeColor=none;fillColor=none;align=center;verticalAlign=middle;whiteSpace=wrap;rounded=0;" vertex="1" parent="1">
          <mxGeometry x="280" y="220" width="60" height="30" as="geometry" />
        </mxCell>
        <mxCell id="hd0M6olZEAg69DOeF42a-20" value="192.168.5.0/24" style="text;html=1;strokeColor=none;fillColor=none;align=center;verticalAlign=middle;whiteSpace=wrap;rounded=0;" vertex="1" parent="1">
          <mxGeometry x="250" y="390" width="90" height="30" as="geometry" />
        </mxCell>
        <mxCell id="hd0M6olZEAg69DOeF42a-22" value=".1" style="text;html=1;strokeColor=none;fillColor=none;align=center;verticalAlign=middle;whiteSpace=wrap;rounded=0;" vertex="1" parent="1">
          <mxGeometry x="547.5" y="350" width="25" height="30" as="geometry" />
        </mxCell>
        <mxCell id="hd0M6olZEAg69DOeF42a-23" value=".1" style="text;html=1;strokeColor=none;fillColor=none;align=center;verticalAlign=middle;whiteSpace=wrap;rounded=0;" vertex="1" parent="1">
          <mxGeometry x="240" y="360" width="25" height="30" as="geometry" />
        </mxCell>
        <mxCell id="hd0M6olZEAg69DOeF42a-24" value=".1" style="text;html=1;strokeColor=none;fillColor=none;align=center;verticalAlign=middle;whiteSpace=wrap;rounded=0;" vertex="1" parent="1">
          <mxGeometry x="297.5" y="180" width="25" height="30" as="geometry" />
        </mxCell>
        <mxCell id="hd0M6olZEAg69DOeF42a-25" value=".1" style="text;html=1;strokeColor=none;fillColor=none;align=center;verticalAlign=middle;whiteSpace=wrap;rounded=0;" vertex="1" parent="1">
          <mxGeometry x="400" y="180" width="25" height="30" as="geometry" />
        </mxCell>
        <mxCell id="hd0M6olZEAg69DOeF42a-26" value=".1" style="text;html=1;strokeColor=none;fillColor=none;align=center;verticalAlign=middle;whiteSpace=wrap;rounded=0;" vertex="1" parent="1">
          <mxGeometry x="413" y="140" width="25" height="30" as="geometry" />
        </mxCell>
        <mxCell id="hd0M6olZEAg69DOeF42a-27" value=".1" style="text;html=1;strokeColor=none;fillColor=none;align=center;verticalAlign=middle;whiteSpace=wrap;rounded=0;" vertex="1" parent="1">
          <mxGeometry x="360" y="90" width="25" height="30" as="geometry" />
        </mxCell>
        <mxCell id="hd0M6olZEAg69DOeF42a-28" value="10.0.4.0/24" style="text;html=1;strokeColor=none;fillColor=none;align=center;verticalAlign=middle;whiteSpace=wrap;rounded=0;" vertex="1" parent="1">
          <mxGeometry x="378" y="65" width="60" height="30" as="geometry" />
        </mxCell>
        <mxCell id="hd0M6olZEAg69DOeF42a-29" value=".2" style="text;html=1;strokeColor=none;fillColor=none;align=center;verticalAlign=middle;whiteSpace=wrap;rounded=0;" vertex="1" parent="1">
          <mxGeometry x="465" y="60" width="25" height="30" as="geometry" />
        </mxCell>
        <mxCell id="hd0M6olZEAg69DOeF42a-30" value=".2" style="text;html=1;strokeColor=none;fillColor=none;align=center;verticalAlign=middle;whiteSpace=wrap;rounded=0;" vertex="1" parent="1">
          <mxGeometry x="430" y="230" width="25" height="30" as="geometry" />
        </mxCell>
        <mxCell id="hd0M6olZEAg69DOeF42a-31" value=".2" style="text;html=1;strokeColor=none;fillColor=none;align=center;verticalAlign=middle;whiteSpace=wrap;rounded=0;" vertex="1" parent="1">
          <mxGeometry x="600" y="230" width="25" height="30" as="geometry" />
        </mxCell>
        <mxCell id="hd0M6olZEAg69DOeF42a-32" value=".2" style="text;html=1;strokeColor=none;fillColor=none;align=center;verticalAlign=middle;whiteSpace=wrap;rounded=0;" vertex="1" parent="1">
          <mxGeometry x="255" y="260" width="25" height="30" as="geometry" />
        </mxCell>
        <mxCell id="hd0M6olZEAg69DOeF42a-33" value=".10" style="text;html=1;strokeColor=none;fillColor=none;align=center;verticalAlign=middle;whiteSpace=wrap;rounded=0;" vertex="1" parent="1">
          <mxGeometry x="240" y="410" width="25" height="30" as="geometry" />
        </mxCell>
        <mxCell id="hd0M6olZEAg69DOeF42a-34" value=".11" style="text;html=1;strokeColor=none;fillColor=none;align=center;verticalAlign=middle;whiteSpace=wrap;rounded=0;" vertex="1" parent="1">
          <mxGeometry x="495" y="410" width="25" height="30" as="geometry" />
        </mxCell>
        <mxCell id="hd0M6olZEAg69DOeF42a-35" value="192.168.5.0/24" style="text;html=1;strokeColor=none;fillColor=none;align=center;verticalAlign=middle;whiteSpace=wrap;rounded=0;" vertex="1" parent="1">
          <mxGeometry x="425" y="390" width="90" height="30" as="geometry" />
        </mxCell>
      </root>
    </mxGraphModel>
  </diagram>
</mxfile>
